<svg width="14" height="14" viewBox="0 0 14 14" fill="none" xmlns="http://www.w3.org/2000/svg">
<path fill-rule="evenodd" clip-rule="evenodd" d="M0.793031 0.796021C0.60556 0.983549 0.500244 1.23786 0.500244 1.50302C0.500244 1.76819 0.60556 2.02249 0.793031 2.21002L5.58603 7.00302L0.793031 11.796C0.610873 11.9846 0.510078 12.2372 0.512357 12.4994C0.514635 12.7616 0.619804 13.0124 0.805212 13.1978C0.99062 13.3832 1.24143 13.4884 1.50363 13.4907C1.76583 13.493 2.01843 13.3922 2.20703 13.21L7.00003 8.41702L11.793 13.21C11.9816 13.3922 12.2342 13.493 12.4964 13.4907C12.7586 13.4884 13.0094 13.3832 13.1948 13.1978C13.3803 13.0124 13.4854 12.7616 13.4877 12.4994C13.49 12.2372 13.3892 11.9846 13.207 11.796L8.41403 7.00302L13.207 2.21002C13.3892 2.02142 13.49 1.76882 13.4877 1.50662C13.4854 1.24442 13.3803 0.993611 13.1948 0.808203C13.0094 0.622795 12.7586 0.517626 12.4964 0.515347C12.2342 0.513069 11.9816 0.613863 11.793 0.796021L7.00003 5.58902L2.20703 0.796021C2.0195 0.60855 1.76519 0.503235 1.50003 0.503235C1.23487 0.503235 0.980558 0.60855 0.793031 0.796021Z" fill="black"/>
</svg>
