<svg width="24" height="24" viewBox="0 0 24 24" fill="none" xmlns="http://www.w3.org/2000/svg">
<path d="M11.2921 7.10921L12 7.81708L12.7071 7.10844L13.527 6.2867C13.5272 6.2865 13.5274 6.2863 13.5276 6.28609C15.24 4.57434 18.0113 4.57454 19.7235 6.2867C21.4307 7.99388 21.4308 10.755 19.7242 12.4724C19.7238 12.4728 19.7234 12.4732 19.723 12.4736L12.0003 20.1918L4.28165 12.4731C2.57311 10.7646 2.57311 7.9945 4.28165 6.28596C5.9902 4.57741 8.76029 4.57741 10.4688 6.28596L11.2921 7.10921ZM11.8235 20.3685C11.8236 20.3684 11.8238 20.3682 11.8239 20.3681L11.8237 20.3683L11.8235 20.3685Z" fill="#FF0000" stroke="#FF0000" stroke-width="2"/>
</svg>
